<svg width="26" height="22" fill="none" xmlns="http://www.w3.org/2000/svg"><path d="M14.232 13.332v-.558a1.232 1.232 0 10-2.464 0v.558a1.232 1.232 0 102.464 0z" fill="#F0145A"/><path d="M15.077 14.014a2.177 2.177 0 01-2.076 1.55 2.177 2.177 0 01-2.077-1.55H2.439a3.47 3.47 0 01-1.496-.34v5.633c0 1.1.9 2 2 2h20.113c1.1 0 2-.9 2-2v-5.633a3.47 3.47 0 01-1.495.34h-8.484zm8.4-10.116h-4.8A3.809 3.809 0 0014.923.694h-3.847a3.81 3.81 0 00-3.754 3.204h-4.8c-1.146 0-2.083.9-2.083 2v4.616a2 2 0 002 2h8.39a2.171 2.171 0 01.666-1.466c.012-.012.026-.02.039-.032.086-.08.176-.154.274-.22.036-.023.075-.039.112-.06.081-.046.161-.095.248-.13.069-.03.143-.046.215-.067.062-.019.121-.043.186-.056a2.155 2.155 0 01.862 0c.065.013.124.037.186.056.071.021.145.038.214.067.087.036.167.084.248.13.037.022.076.038.112.061.098.065.188.14.274.22.013.01.027.02.04.032.39.374.637.89.665 1.466h8.39a2 2 0 002-2V5.9c.001-1.101-.936-2.001-2.082-2.001zm-14.229 0a1.93 1.93 0 011.829-1.332h3.846a1.93 1.93 0 011.829 1.332H9.248z" fill="#F0145A"/></svg>