<svg width="64" height="64" fill="none" xmlns="http://www.w3.org/2000/svg"><path d="M60.526 37.727a5.596 5.596 0 00-2.15-.429 5.61 5.61 0 00-4.186 1.863l-1.22-.505-3.48-1.441A18.19 18.19 0 0050.25 32c0-1.812-.267-3.562-.76-5.215l3.48-1.442 1.22-.505a5.61 5.61 0 004.185 1.863 5.632 5.632 0 005.195-7.779 5.61 5.61 0 00-5.198-3.473 5.634 5.634 0 00-5.615 5.923l-1.227.509-3.479 1.44a18.382 18.382 0 00-7.373-7.373l1.441-3.479.508-1.225a5.61 5.61 0 005.494-3.465A5.632 5.632 0 0042.926 0a5.61 5.61 0 00-5.199 3.473 5.634 5.634 0 001.436 6.334l-.507 1.223-1.441 3.48A18.196 18.196 0 0032 13.75c-1.811 0-3.562.267-5.215.76l-1.441-3.48-.507-1.223a5.634 5.634 0 001.436-6.334A5.61 5.61 0 0021.074 0a5.632 5.632 0 00-5.195 7.779 5.61 5.61 0 005.494 3.465l.508 1.226 1.44 3.479a18.38 18.38 0 00-7.372 7.373l-3.48-1.441-1.226-.508a5.634 5.634 0 00-3.464-5.494 5.595 5.595 0 00-2.151-.43 5.61 5.61 0 00-5.199 3.474 5.632 5.632 0 005.196 7.779 5.61 5.61 0 004.185-1.864l1.22.506 3.48 1.441A18.193 18.193 0 0013.75 32c0 1.812.267 3.562.76 5.215l-3.48 1.441-1.22.505a5.61 5.61 0 00-4.185-1.863A5.632 5.632 0 00.43 45.077a5.61 5.61 0 005.198 3.473c.74 0 1.463-.144 2.15-.429a5.634 5.634 0 003.464-5.494l1.228-.508 3.479-1.44a18.38 18.38 0 007.373 7.372l-1.441 3.48-.508 1.225a5.61 5.61 0 00-5.494 3.465A5.632 5.632 0 0021.074 64a5.61 5.61 0 005.198-3.474 5.634 5.634 0 00-1.435-6.333l.506-1.223 1.442-3.48c1.653.493 3.403.76 5.215.76 1.811 0 3.562-.267 5.215-.76l1.441 3.48.507 1.223a5.634 5.634 0 00-1.436 6.334A5.61 5.61 0 0042.926 64a5.632 5.632 0 005.195-7.779 5.61 5.61 0 00-5.495-3.465l-.507-1.226-1.441-3.479a18.38 18.38 0 007.373-7.373l3.479 1.441 1.227.508a5.634 5.634 0 003.464 5.494c.687.285 1.411.43 2.15.43a5.61 5.61 0 005.2-3.474 5.631 5.631 0 00-3.045-7.35zM32 46.5c-7.995 0-14.5-6.505-14.5-14.5S24.005 17.5 32 17.5 46.5 24.005 46.5 32 39.995 46.5 32 46.5z" fill="#000"/><path d="M60.526 37.727a5.596 5.596 0 00-2.15-.429 5.61 5.61 0 00-4.186 1.863l-1.22-.505-3.48-1.441A18.19 18.19 0 0050.25 32c0-1.812-.267-3.562-.76-5.215l3.48-1.442 1.22-.505a5.61 5.61 0 004.185 1.863 5.632 5.632 0 005.195-7.779 5.61 5.61 0 00-5.198-3.473 5.634 5.634 0 00-5.615 5.923l-1.227.509-3.479 1.44a18.382 18.382 0 00-7.373-7.373l1.441-3.479.508-1.225a5.61 5.61 0 005.494-3.465A5.632 5.632 0 0042.926 0a5.61 5.61 0 00-5.199 3.473 5.634 5.634 0 001.436 6.334l-.507 1.223-1.441 3.48A18.196 18.196 0 0032 13.75c-1.811 0-3.562.267-5.215.76l-1.441-3.48-.507-1.223a5.634 5.634 0 001.436-6.334A5.61 5.61 0 0021.074 0a5.632 5.632 0 00-5.195 7.779 5.61 5.61 0 005.494 3.465l.508 1.226 1.44 3.479a18.38 18.38 0 00-7.372 7.373l-3.48-1.441-1.226-.508a5.634 5.634 0 00-3.464-5.494 5.595 5.595 0 00-2.151-.43 5.61 5.61 0 00-5.199 3.474 5.632 5.632 0 005.196 7.779 5.61 5.61 0 004.185-1.864l1.22.506 3.48 1.441A18.193 18.193 0 0013.75 32c0 1.812.267 3.562.76 5.215l-3.48 1.441-1.22.505a5.61 5.61 0 00-4.185-1.863A5.632 5.632 0 00.43 45.077a5.61 5.61 0 005.198 3.473c.74 0 1.463-.144 2.15-.429a5.634 5.634 0 003.464-5.494l1.228-.508 3.479-1.44a18.38 18.38 0 007.373 7.372l-1.441 3.48-.508 1.225a5.61 5.61 0 00-5.494 3.465A5.632 5.632 0 0021.074 64a5.61 5.61 0 005.198-3.474 5.634 5.634 0 00-1.435-6.333l.506-1.223 1.442-3.48c1.653.493 3.403.76 5.215.76 1.811 0 3.562-.267 5.215-.76l1.441 3.48.507 1.223a5.634 5.634 0 00-1.436 6.334A5.61 5.61 0 0042.926 64a5.632 5.632 0 005.195-7.779 5.61 5.61 0 00-5.495-3.465l-.507-1.226-1.441-3.479a18.38 18.38 0 007.373-7.373l3.479 1.441 1.227.508a5.634 5.634 0 003.464 5.494c.687.285 1.411.43 2.15.43a5.61 5.61 0 005.2-3.474 5.631 5.631 0 00-3.045-7.35zM32 46.5c-7.995 0-14.5-6.505-14.5-14.5S24.005 17.5 32 17.5 46.5 24.005 46.5 32 39.995 46.5 32 46.5z" fill="url(#paint0_linear_22728_7150)"/><path d="M32 21.25c-5.927 0-10.75 4.823-10.75 10.75 0 5.928 4.823 10.75 10.75 10.75 5.928 0 10.75-4.822 10.75-10.75 0-5.927-4.822-10.75-10.75-10.75zm1.875 14.875h-3.75v-8.25h3.75v8.25z" fill="#000"/><path d="M32 21.25c-5.927 0-10.75 4.823-10.75 10.75 0 5.928 4.823 10.75 10.75 10.75 5.928 0 10.75-4.822 10.75-10.75 0-5.927-4.822-10.75-10.75-10.75zm1.875 14.875h-3.75v-8.25h3.75v8.25z" fill="url(#paint1_linear_22728_7150)"/><defs><linearGradient id="paint0_linear_22728_7150" x1="32" y1="0" x2="32" y2="64" gradientUnits="userSpaceOnUse"><stop stop-color="#EF8080"/><stop offset="1" stop-color="#F0145A"/></linearGradient><linearGradient id="paint1_linear_22728_7150" x1="32" y1="21.25" x2="32" y2="42.75" gradientUnits="userSpaceOnUse"><stop stop-color="#EF8080"/><stop offset="1" stop-color="#F0145A"/></linearGradient></defs></svg>