<svg width="64" height="64" fill="none" xmlns="http://www.w3.org/2000/svg"><path d="M40.352 20.389a1.872 1.872 0 002.65 0l2.608-2.608a1.878 1.878 0 000-2.651l-6.583-6.581a1.871 1.871 0 00-2.648 0l-2.609 2.608a1.875 1.875 0 000 2.648l6.582 6.584z" fill="url(#paint0_linear_22728_7169)"/><path d="M24.766 36.267a1.876 1.876 0 002.648 0l2.609-2.61a1.872 1.872 0 000-2.649l-6.583-6.583a1.874 1.874 0 00-2.649 0l-2.608 2.608a1.875 1.875 0 000 2.65l6.583 6.584z" fill="url(#paint1_linear_22728_7169)"/><path d="M54.648 36.893l-2.647-2.65a1.875 1.875 0 00-2.648 0l-1.161 1.16-11.205-11.207 2.427-2.428-6.733-6.73-2.428 2.427-3.092 3.09-2.374 2.374 6.732 6.733 2.377-2.373 11.203 11.205-1.048 1.05a1.87 1.87 0 000 2.647l2.647 2.648a1.87 1.87 0 002.65 0l5.299-5.297a1.871 1.871 0 00.001-2.649z" fill="url(#paint2_linear_22728_7169)"/><path d="M35.077 44.943a2.173 2.173 0 00-2.173-2.173H15.936c-1.2 0-2.173.973-2.173 2.172v3.527H9v7.39h30.558v-7.39h-4.481v-3.526z" fill="url(#paint3_linear_22728_7169)"/><defs><linearGradient id="paint0_linear_22728_7169" x1="39.69" y1="8" x2="39.69" y2="20.939" gradientUnits="userSpaceOnUse"><stop stop-color="#EF8080"/><stop offset="1" stop-color="#F0145A"/></linearGradient><linearGradient id="paint1_linear_22728_7169" x1="24.103" y1="23.877" x2="24.103" y2="36.814" gradientUnits="userSpaceOnUse"><stop stop-color="#EF8080"/><stop offset="1" stop-color="#F0145A"/></linearGradient><linearGradient id="paint2_linear_22728_7169" x1="39.992" y1="15.037" x2="39.992" y2="45.39" gradientUnits="userSpaceOnUse"><stop stop-color="#EF8080"/><stop offset="1" stop-color="#F0145A"/></linearGradient><linearGradient id="paint3_linear_22728_7169" x1="24.279" y1="42.77" x2="24.279" y2="55.858" gradientUnits="userSpaceOnUse"><stop stop-color="#EF8080"/><stop offset="1" stop-color="#F0145A"/></linearGradient></defs></svg>