<svg width="64" height="64" fill="none" xmlns="http://www.w3.org/2000/svg"><path d="M23.734 28.125a2 2 0 002-2v-7.8A6.332 6.332 0 0132.058 12a6.333 6.333 0 016.325 6.325v7.8a2 2 0 004 0v-7.8C42.383 12.632 37.752 8 32.058 8c-5.692 0-10.324 4.632-10.324 10.325v7.8a2 2 0 002 2z" fill="url(#paint0_linear_22728_7131)"/><path d="M55 23.63H44.384v2.495c0 2.206-1.794 4-4 4s-4-1.794-4-4V23.63h-8.649v2.494c0 2.206-1.794 4-4 4s-4-1.794-4-4V23.63H9c-.552 0-.893.435-.762.97l6.998 28.5C15.658 54.702 17.344 56 19 56h26c1.658 0 3.342-1.298 3.766-2.9l6.996-28.497c.131-.537-.209-.971-.762-.971z" fill="url(#paint1_linear_22728_7131)"/><path d="M28.6 34.4a1.4 1.4 0 112.8 0v6.95V40a1.4 1.4 0 112.8 0v1.676c.013-.762.635-2.376 1.4-2.376a1.4 1.4 0 011.4 1.4s.041 1.041.133 1.103C37.357 41.33 37.84 40 38.4 40a1.4 1.4 0 011.4 1.4v7a2.8 2.8 0 01-2.8 2.8h-4.68a5.6 5.6 0 01-3.96-1.64l-2.21-2.21L23 45.94c.005-1.337 1.053-1.74 2.1-1.74.902 0 1.714.14 3.5 1.05V34.4z" fill="#fff"/><defs><linearGradient id="paint0_linear_22728_7131" x1="32.058" y1="8" x2="32.058" y2="28.125" gradientUnits="userSpaceOnUse"><stop stop-color="#EF8080"/><stop offset="1" stop-color="#F0145A"/></linearGradient><linearGradient id="paint1_linear_22728_7131" x1="32" y1="23.631" x2="32" y2="56" gradientUnits="userSpaceOnUse"><stop stop-color="#EF8080"/><stop offset="1" stop-color="#F0145A"/></linearGradient></defs></svg>