<svg width="24" height="28" fill="none" xmlns="http://www.w3.org/2000/svg"><path d="M23.113 4.305a.82.82 0 00-.598-.252c-.114 0-.355.094-.723.28-.367.185-.757.392-1.168.623a8.41 8.41 0 01-1.46.624c-.562.185-1.082.28-1.56.28-.442 0-.832-.085-1.168-.253-1.114-.522-2.084-.912-2.907-1.169a8.879 8.879 0 00-2.655-.385c-1.636 0-3.5.532-5.589 1.594-.431.215-.74.381-.94.503l-.199-1.455a2.11 2.11 0 00.739-1.598 2.124 2.124 0 10-4.25 0c0 .766.41 1.431 1.016 1.805l2.87 21.045A1.25 1.25 0 007 25.61l-1.155-8.46c2.093-1.038 3.904-1.562 5.426-1.562a6.22 6.22 0 011.892.292c.615.195 1.127.407 1.534.637.407.23.887.443 1.44.637.553.195 1.1.292 1.639.292 1.363 0 2.995-.513 4.898-1.54.239-.124.414-.246.524-.365.111-.12.166-.29.166-.51V4.901a.82.82 0 00-.25-.597z" fill="#F0145A"/></svg>