<svg width="130" height="60" fill="none" xmlns="http://www.w3.org/2000/svg"><g clip-path="url(#clip0_28136_1492)"><path d="M4.957 0H0v35.799h4.957V22.518c0-2.247.559-4.02 1.676-5.268 1.118-1.248 2.649-1.897 4.544-1.897 1.628 0 2.989.6 4.082 1.747 1.093 1.174 1.652 2.647 1.652 4.42v14.304h4.981V21.519c0-3.295-.899-5.891-2.697-7.839-1.798-1.947-4.155-2.92-7.022-2.92-.826 0-1.652.1-2.454.324-.826.225-1.482.474-2.017.749-.534.275-1.044.574-1.506.924-.462.35-.778.599-.923.749-.146.15-.268.25-.316.324V0z" fill="#F0145A"/><path d="M32.973 0h-5.11v35.769h5.11V0zm30.139 25.294l.255-2.555c0-3.424-1.124-6.286-3.423-8.585-2.3-2.3-5.162-3.424-8.585-3.424-3.424 0-6.387 1.227-8.84 3.68-2.453 2.452-3.68 5.365-3.68 8.84 0 3.576 1.278 6.642 3.782 9.197 2.504 2.555 5.519 3.833 8.993 3.833 1.329 0 2.555-.205 3.782-.562 1.226-.41 2.248-.818 2.963-1.227.767-.46 1.533-.97 2.198-1.533.664-.562 1.124-.97 1.328-1.226.205-.256.358-.409.46-.562l-3.321-3.322-.767.971c-.51.614-1.38 1.227-2.606 1.89-1.277.665-2.606.972-4.037.972-1.992 0-3.679-.613-5.11-1.89-1.43-1.278-2.299-2.76-2.554-4.497h19.162zm-11.753-10.22c1.89 0 3.423.562 4.701 1.635 1.226 1.124 1.993 2.504 2.3 4.241H44.153c.46-1.737 1.277-3.117 2.555-4.241 1.226-1.073 2.81-1.635 4.65-1.635zm35.584 19.213c0 2.248-.664 4.088-2.044 5.518-1.329 1.38-3.015 2.096-5.11 2.096-.92 0-1.84-.154-2.708-.41-.869-.255-1.533-.561-2.095-.92a11.553 11.553 0 01-1.584-1.174l-.92-.92c-.153-.153-.255-.307-.358-.409l-3.32 3.322.408.51c.255.358.715.818 1.328 1.329.614.46 1.329.97 2.147 1.482.817.46 1.84.869 3.117 1.226 1.277.358 2.606.562 3.985.562 3.475 0 6.336-1.175 8.738-3.526 2.35-2.401 3.526-5.263 3.526-8.737V11.242h-5.11v2.554l-.869-.766c-.562-.511-1.43-1.022-2.657-1.533a10.122 10.122 0 00-3.883-.767c-3.117 0-5.774 1.176-8.074 3.577-2.3 2.402-3.423 5.263-3.423 8.687 0 3.424 1.124 6.285 3.423 8.687 2.3 2.401 4.957 3.577 8.074 3.577.868 0 1.686-.102 2.555-.307a17.609 17.609 0 002.044-.766 7.623 7.623 0 001.533-.92c.46-.358.817-.613.92-.715l.357-.358v2.095zM73.147 22.994c0-2.146.664-3.934 2.043-5.416 1.38-1.482 3.015-2.249 4.855-2.249 1.84 0 3.474.767 4.854 2.249 1.329 1.482 2.044 3.27 2.044 5.416 0 2.146-.715 3.935-2.044 5.416-1.38 1.482-3.015 2.249-4.854 2.249-1.84 0-3.475-.767-4.855-2.248-1.38-1.482-2.043-3.27-2.043-5.417zm45.577 12.775v-15.84c0-2.607-.971-4.804-2.862-6.541-1.89-1.789-4.343-2.658-7.358-2.658-1.175 0-2.35.154-3.474.46-1.125.358-2.044.716-2.709 1.125-.664.408-1.328.868-1.941 1.43a16.13 16.13 0 00-1.176 1.073c-.153.205-.306.358-.408.511l3.321 3.322.664-.869c.409-.562 1.124-1.073 2.197-1.635s2.249-.818 3.526-.818c1.482 0 2.708.46 3.679 1.329.971.869 1.431 1.993 1.431 3.27l-8.942 1.533c-2.197.358-3.986 1.227-5.212 2.606-1.278 1.38-1.942 3.066-1.942 5.059 0 1.89.818 3.526 2.453 4.956 1.686 1.482 3.73 2.198 6.234 2.198.868 0 1.686-.102 2.504-.358.868-.204 1.533-.46 2.095-.715a7.628 7.628 0 001.533-.92c.459-.358.766-.613.97-.715.154-.154.256-.307.307-.358v2.555h5.11zm-11.753-4.088c-1.328 0-2.401-.307-3.168-.92-.817-.613-1.175-1.328-1.175-2.146 0-.869.255-1.635.817-2.197.563-.562 1.329-.971 2.249-1.124l7.92-1.278v.511c0 2.3-.562 4.037-1.737 5.314-1.176 1.227-2.811 1.84-4.906 1.84zM130 0h-5.11v35.769H130V0zM0 53.118h1.6v5.607h3.464v1.303H0v-6.91zm15.502 5.43h-3.209l-.612 1.48h-1.638l3.08-6.91h1.579l3.09 6.91h-1.678l-.612-1.48zm-.504-1.215l-1.095-2.645-1.096 2.645h2.191zm18.514-4.215l-2.26 6.91h-1.718l-1.52-4.679-1.57 4.68h-1.707l-2.27-6.91h1.658l1.56 4.856 1.628-4.857h1.48l1.58 4.897 1.61-4.897h1.53zm17.011 7.029a4.033 4.033 0 01-1.915-.454 3.518 3.518 0 01-1.342-1.274 3.562 3.562 0 01-.484-1.846c0-.684.161-1.296.484-1.836.329-.546.776-.97 1.342-1.273.573-.31 1.214-.464 1.925-.464.599 0 1.139.105 1.619.316.487.21.895.513 1.224.908l-1.027.948c-.467-.54-1.046-.81-1.737-.81-.428 0-.81.096-1.145.286a2 2 0 00-.79.78 2.34 2.34 0 00-.276 1.145c0 .428.092.81.276 1.145.191.336.454.6.79.79a2.34 2.34 0 001.145.277c.691 0 1.27-.273 1.737-.82l1.027.948a3.2 3.2 0 01-1.224.918c-.487.21-1.03.316-1.629.316zm12.07 0a4.064 4.064 0 01-1.944-.464 3.5 3.5 0 01-1.353-1.273 3.543 3.543 0 01-.483-1.837c0-.677.16-1.286.483-1.826a3.48 3.48 0 011.353-1.283c.579-.31 1.227-.464 1.944-.464.718 0 1.362.155 1.935.464a3.476 3.476 0 011.846 3.11c0 .677-.164 1.29-.494 1.836a3.5 3.5 0 01-1.352 1.273c-.573.31-1.217.464-1.935.464zm0-1.362c.408 0 .777-.093 1.106-.277a2.02 2.02 0 00.77-.79c.19-.335.286-.717.286-1.145 0-.427-.095-.809-.286-1.145a1.951 1.951 0 00-.77-.78 2.164 2.164 0 00-1.106-.286c-.408 0-.776.096-1.105.286a2.019 2.019 0 00-.78.78 2.34 2.34 0 00-.276 1.145c0 .428.092.81.276 1.145.19.336.45.6.78.79.329.184.697.277 1.105.277zM78.8 60.028l-.01-4.146-2.034 3.416h-.72l-2.024-3.327v4.057h-1.5v-6.91h1.322l2.587 4.294 2.546-4.294h1.313l.02 6.91h-1.5zm11.066-6.91c.612 0 1.142.102 1.59.306.453.205.802.494 1.046.87.243.374.365.819.365 1.332 0 .507-.122.95-.365 1.332-.244.376-.593.665-1.047.87-.447.197-.977.295-1.59.295h-1.39v1.905h-1.6v-6.91h2.99zm-.089 3.702c.48 0 .846-.102 1.096-.306.25-.21.375-.507.375-.888 0-.389-.125-.685-.375-.889-.25-.21-.616-.316-1.096-.316h-1.303v2.4h1.303zm13.371 1.728H99.94l-.612 1.48h-1.64l3.081-6.91h1.579l3.09 6.91h-1.678l-.612-1.48zm-.504-1.215l-1.095-2.645-1.096 2.645h2.191zm14.784-4.215v6.91h-1.313l-3.445-4.195v4.195h-1.58v-6.91h1.323l3.435 4.196v-4.196h1.58zm9.887 4.462v2.448h-1.599V57.56l-2.675-4.442h1.698l1.846 3.07 1.845-3.07H130l-2.685 4.462z" fill="#fff"/></g><defs><clipPath id="clip0_28136_1492"><path fill="#fff" d="M0 0h130v60H0z"/></clipPath></defs></svg>