<svg width="64" height="64" fill="none" xmlns="http://www.w3.org/2000/svg"><path d="M41.232 37.696c2.352 0 4.678.588 6.726 1.701.372.2.713.44 1.061.67 3.362-6.58 5.136-13.54 5.136-20.328 0-.382 0-.776-.013-1.17a1.244 1.244 0 00-.972-1.156c-7.434-1.625-14.166-5.65-19.459-11.631l-.787-.899A1.207 1.207 0 0032 4.465c-.382-.05-.677.135-.911.394l-1.206 1.33c-5.022 5.525-11.348 9.34-18.29 11.04l-.8.196a1.21 1.21 0 00-.935 1.157C9.415 35.886 19.63 48.33 24.037 52.883a41.698 41.698 0 003.787 3.449 14.227 14.227 0 01-.747-4.482c0-7.805 6.349-14.154 14.154-14.154z" fill="url(#paint0_linear_22728_7168)"/><path d="M46.782 41.561a11.653 11.653 0 00-5.55-1.403c-6.45 0-11.693 5.243-11.693 11.692 0 2.179.59 4.308 1.723 6.13 2.154 3.483 5.871 5.563 9.97 5.563 6.436 0 11.692-5.243 11.692-11.693 0-4.307-2.351-8.246-6.142-10.289zm.438 8.733l-9.145 7.116-3.122-4.883a1.23 1.23 0 112.073-1.326l1.668 2.608 7.014-5.458a1.23 1.23 0 111.512 1.943z" fill="url(#paint1_linear_22728_7168)"/><defs><linearGradient id="paint0_linear_22728_7168" x1="32" y1="4.457" x2="32" y2="56.332" gradientUnits="userSpaceOnUse"><stop stop-color="#EF8080"/><stop offset="1" stop-color="#F0145A"/></linearGradient><linearGradient id="paint1_linear_22728_7168" x1="41.231" y1="40.158" x2="41.231" y2="63.543" gradientUnits="userSpaceOnUse"><stop stop-color="#EF8080"/><stop offset="1" stop-color="#F0145A"/></linearGradient></defs></svg>