<svg width="64" height="64" fill="none" xmlns="http://www.w3.org/2000/svg"><path fill-rule="evenodd" clip-rule="evenodd" d="M53.451 35.076v17.295c0 3.094-2.424 5.629-5.388 5.629H15.97c-2.964 0-5.388-2.535-5.388-5.629V35.076h16.666v7.511l4.769 3.133 4.768-3.133v-7.51h16.666z" fill="url(#paint0_linear_22728_7137)"/><path fill-rule="evenodd" clip-rule="evenodd" d="M28.919 35.076v6.609l3.098 2.035 3.098-2.035v-6.609h-6.197z" fill="url(#paint1_linear_22728_7137)"/><path fill-rule="evenodd" clip-rule="evenodd" d="M12.073 15.143H51.96c1.882 0 3.42 1.708 3.42 3.795v10.253c0 2.088-1.538 3.796-3.42 3.796H12.073c-1.882 0-3.42-1.708-3.42-3.796V18.938c0-2.087 1.538-3.795 3.42-3.795z" fill="url(#paint2_linear_22728_7137)"/><path fill-rule="evenodd" clip-rule="evenodd" d="M23.712 5.955h16.61a2.814 2.814 0 012.805 2.806v4.377H39.57v-2.586c0-.698-.57-1.27-1.268-1.27H25.731c-.697 0-1.268.572-1.268 1.27v2.586h-3.557V8.761a2.814 2.814 0 012.806-2.806z" fill="url(#paint3_linear_22728_7137)"/><defs><linearGradient id="paint0_linear_22728_7137" x1="32.017" y1="35.076" x2="32.017" y2="58" gradientUnits="userSpaceOnUse"><stop stop-color="#EF8080"/><stop offset="1" stop-color="#F0145A"/></linearGradient><linearGradient id="paint1_linear_22728_7137" x1="32.017" y1="35.076" x2="32.017" y2="43.72" gradientUnits="userSpaceOnUse"><stop stop-color="#EF8080"/><stop offset="1" stop-color="#F0145A"/></linearGradient><linearGradient id="paint2_linear_22728_7137" x1="32.017" y1="15.143" x2="32.017" y2="32.987" gradientUnits="userSpaceOnUse"><stop stop-color="#EF8080"/><stop offset="1" stop-color="#F0145A"/></linearGradient><linearGradient id="paint3_linear_22728_7137" x1="32.017" y1="5.955" x2="32.017" y2="13.138" gradientUnits="userSpaceOnUse"><stop stop-color="#EF8080"/><stop offset="1" stop-color="#F0145A"/></linearGradient></defs></svg>