<svg width="64" height="64" fill="none" xmlns="http://www.w3.org/2000/svg"><path d="M42.006 56h-19v6h19v-6z" fill="#000"/><path d="M42.006 56h-19v6h19v-6z" fill="url(#paint0_linear_22728_7167)"/><path d="M15.173 2.452L1.738 15.887l3.535 3.535L18.708 5.987l-3.535-3.535z" fill="#000"/><path d="M15.173 2.452L1.738 15.887l3.535 3.535L18.708 5.987l-3.535-3.535z" fill="url(#paint1_linear_22728_7167)"/><path d="M49.113 2.322l-3.536 3.535 13.435 13.435 3.536-3.535L49.113 2.322z" fill="#000"/><path d="M49.113 2.322l-3.536 3.535 13.435 13.435 3.536-3.535L49.113 2.322z" fill="url(#paint2_linear_22728_7167)"/><path d="M44.556 9.706l-2.691-.114a5.057 5.057 0 00-4.283 1.432l-5.505 5.505-5.753-5.754a3.84 3.84 0 00-3.858-.909 3.618 3.618 0 01-3.611-.903l-.854-.854L7.394 18.716l1.728 1.728-.114 2.69a5.058 5.058 0 001.432 4.284l9.612 9.612a4.985 4.985 0 011.691-3.258l-2.995-2.995.707-.707 3.129 3.128a4.947 4.947 0 011.422-.54v-3.695l-1.722-1.722.707-.707 1.015 1.015v-5.35a3.61 3.61 0 013.142-3.625c.331-.032.665-.017.991.045l-1.23-1.23.708-.707 1.796 1.797a3.541 3.541 0 013.403-1.909 3.6 3.6 0 013.175 3.332 3.557 3.557 0 011.825-.332 3.62 3.62 0 013.19 3.663v3.424a5.004 5.004 0 013.816 3.625l2.788-2.788.708.707-3.316 3.315c0 .014.004.027.004.04v3.32a3.963 3.963 0 002.379-1.128l6.84-6.84a3.839 3.839 0 00.909-3.858 3.618 3.618 0 01.903-3.611l.854-.854L46.284 7.98l-1.728 1.727z" fill="#000"/><path d="M44.556 9.706l-2.691-.114a5.057 5.057 0 00-4.283 1.432l-5.505 5.505-5.753-5.754a3.84 3.84 0 00-3.858-.909 3.618 3.618 0 01-3.611-.903l-.854-.854L7.394 18.716l1.728 1.728-.114 2.69a5.058 5.058 0 001.432 4.284l9.612 9.612a4.985 4.985 0 011.691-3.258l-2.995-2.995.707-.707 3.129 3.128a4.947 4.947 0 011.422-.54v-3.695l-1.722-1.722.707-.707 1.015 1.015v-5.35a3.61 3.61 0 013.142-3.625c.331-.032.665-.017.991.045l-1.23-1.23.708-.707 1.796 1.797a3.541 3.541 0 013.403-1.909 3.6 3.6 0 013.175 3.332 3.557 3.557 0 011.825-.332 3.62 3.62 0 013.19 3.663v3.424a5.004 5.004 0 013.816 3.625l2.788-2.788.708.707-3.316 3.315c0 .014.004.027.004.04v3.32a3.963 3.963 0 002.379-1.128l6.84-6.84a3.839 3.839 0 00.909-3.858 3.618 3.618 0 01.903-3.611l.854-.854L46.284 7.98l-1.728 1.727z" fill="url(#paint3_linear_22728_7167)"/><path d="M29.88 21.69a2.49 2.49 0 00-2.725-2.189 2.598 2.598 0 00-2.243 2.63V33.49a4 4 0 00-4 4v9.673a3.838 3.838 0 002.086 3.37 3.618 3.618 0 011.914 3.193v1.207h15v-2.444l1.984-1.822a5.059 5.059 0 002.016-4.04V31.488a4 4 0 00-4-4v-4.323a2.622 2.622 0 00-2.276-2.668 2.492 2.492 0 00-2.682 2.1h.458V38.04h-1V22.597h.5v-2.431a2.622 2.622 0 00-2.276-2.668 2.502 2.502 0 00-2.724 2.49v1.702h.5v15.443h-1V21.69h.468zm-4.569 20.35h-1v-8h1v8zM39.413 27.8h1v10.443h-1V27.8z" fill="#000"/><path d="M29.88 21.69a2.49 2.49 0 00-2.725-2.189 2.598 2.598 0 00-2.243 2.63V33.49a4 4 0 00-4 4v9.673a3.838 3.838 0 002.086 3.37 3.618 3.618 0 011.914 3.193v1.207h15v-2.444l1.984-1.822a5.059 5.059 0 002.016-4.04V31.488a4 4 0 00-4-4v-4.323a2.622 2.622 0 00-2.276-2.668 2.492 2.492 0 00-2.682 2.1h.458V38.04h-1V22.597h.5v-2.431a2.622 2.622 0 00-2.276-2.668 2.502 2.502 0 00-2.724 2.49v1.702h.5v15.443h-1V21.69h.468zm-4.569 20.35h-1v-8h1v8zM39.413 27.8h1v10.443h-1V27.8z" fill="url(#paint4_linear_22728_7167)"/><defs><linearGradient id="paint0_linear_22728_7167" x1="32.506" y1="56" x2="32.506" y2="62" gradientUnits="userSpaceOnUse"><stop stop-color="#EF8080"/><stop offset="1" stop-color="#F0145A"/></linearGradient><linearGradient id="paint1_linear_22728_7167" x1="8.455" y1="9.169" x2="11.991" y2="12.705" gradientUnits="userSpaceOnUse"><stop stop-color="#EF8080"/><stop offset="1" stop-color="#F0145A"/></linearGradient><linearGradient id="paint2_linear_22728_7167" x1="47.345" y1="4.09" x2="60.78" y2="17.525" gradientUnits="userSpaceOnUse"><stop stop-color="#EF8080"/><stop offset="1" stop-color="#F0145A"/></linearGradient><linearGradient id="paint3_linear_22728_7167" x1="32.143" y1="7.979" x2="32.143" y2="37.03" gradientUnits="userSpaceOnUse"><stop stop-color="#EF8080"/><stop offset="1" stop-color="#F0145A"/></linearGradient><linearGradient id="paint4_linear_22728_7167" x1="32.412" y1="17.488" x2="32.412" y2="54.932" gradientUnits="userSpaceOnUse"><stop stop-color="#EF8080"/><stop offset="1" stop-color="#F0145A"/></linearGradient></defs></svg>